<?xml version="1.0" encoding="utf-8"?>
<!-- Generator: Adobe Illustrator 17.1.0, SVG Export Plug-In . SVG Version: 6.00 Build 0)  -->
<!DOCTYPE svg PUBLIC "-//W3C//DTD SVG 1.1//EN" "http://www.w3.org/Graphics/SVG/1.1/DTD/svg11.dtd">
<svg version="1.1" id="Layer_1" xmlns="http://www.w3.org/2000/svg" xmlns:xlink="http://www.w3.org/1999/xlink" x="0px" y="0px"
	 viewBox="0 0 272.6 64" enable-background="new 0 0 272.6 64" xml:space="preserve">
<path fill="#2CBDEE" d="M45.1,49.9v-9.6c0-1.9-1.6-3.5-3.5-3.5H39c-1.9,0-3.5-1.6-3.5-3.5v-2.6c0-1.9,1.6-3.5,3.5-3.5h12.3
	c1.9,0,3.5,1.6,3.5,3.5l0,29.2c0,2-1.7,3.6-3.7,3.5C23,61.9,1,48.4,1,32S23,2.1,51.1,0.5c2-0.1,3.7,1.5,3.7,3.5v0.5
	c0,1.7-1.3,3.2-3,3.5c-20.1,2.8-34.6,11.8-35.1,23.7c0,0-1.4,14.5,24,21.6C42.9,53.9,45.1,52.2,45.1,49.9z"/>
<path fill="#2CBDEE" d="M58.6,60c0,2,1.7,3.6,3.7,3.5c21-1.3,35.2-8,42.9-16.4c0.9-1.3-1-0.1-1.1-0.1c-10.7,6-16.7,8.3-32,9.1
	c-2,0.1-3.7-1.5-3.7-3.5V4.1c0-1.9-1.5-3.4-3.3-3.5c-0.9,0-1.8-0.1-2.7-0.1c-2-0.1-3.6,1.5-3.6,3.5V60z"/>
<path fill="#2CBDEE" d="M75.7,18.8c0,0.2-0.1,0.4-0.2,0.5c-0.1,0.1-0.3,0.2-0.5,0.2h-1.9c-0.2,0-0.4-0.1-0.5-0.2
	c-0.1-0.1-0.2-0.3-0.2-0.5v-2.9c0-0.2,0.1-0.4,0.2-0.5c0.1-0.1,0.3-0.2,0.5-0.2H75c0.2,0,0.4,0.1,0.5,0.2c0.1,0.1,0.2,0.3,0.2,0.5
	V18.8z M75.7,41.7c0,0.2-0.1,0.4-0.2,0.5c-0.1,0.1-0.3,0.2-0.5,0.2h-1.8c-0.2,0-0.4-0.1-0.5-0.2c-0.1-0.1-0.2-0.3-0.2-0.5V23.4
	c0-0.2,0.1-0.4,0.2-0.5c0.1-0.1,0.3-0.2,0.5-0.2h1.8c0.2,0,0.4,0.1,0.5,0.2c0.1,0.1,0.2,0.3,0.2,0.5V41.7z"/>
<path fill="#2CBDEE" d="M93.7,37.5c0,1.8-0.6,3.1-1.8,3.9c-1.2,0.9-2.9,1.3-5,1.3c-2.4,0-4.3-0.2-5.8-0.5c-0.5-0.1-0.8-0.4-0.8-0.7
	v-1.3c0-0.4,0.2-0.5,0.7-0.5h0.1c2.1,0.3,4,0.4,5.7,0.4c1.2,0,2.2-0.2,2.7-0.6c0.6-0.4,0.9-1,0.9-2c0-0.5-0.2-1-0.6-1.4
	c-0.4-0.4-1.1-0.9-2.2-1.6l-3.7-2.2c-2.5-1.5-3.7-3.2-3.7-5.1c0-3.2,2.2-4.8,6.6-4.8c1.9,0,3.8,0.2,5.7,0.5c0.5,0.1,0.7,0.3,0.7,0.7
	v1.2c0,0.4-0.2,0.6-0.6,0.6h-0.1c-2.3-0.2-4.1-0.3-5.7-0.3c-1.2,0-2,0.1-2.6,0.4c-0.5,0.3-0.8,0.8-0.8,1.7c0,0.5,0.2,1,0.6,1.3
	c0.4,0.4,1,0.9,1.9,1.4l3.6,2.1c1.5,0.9,2.5,1.7,3.1,2.6C93.4,35.4,93.7,36.4,93.7,37.5z"/>
<path fill="#2CBDEE" d="M112.8,41.2c0,0.3,0,0.5-0.1,0.6c-0.1,0.1-0.3,0.2-0.6,0.3c-2.1,0.4-4.4,0.6-6.7,0.6c-2.6,0-4.6-0.8-6-2.4
	c-1.3-1.6-2-3.7-2-6.5v-2.6c0-2.9,0.7-5,2-6.5c1.3-1.5,3.3-2.3,5.9-2.3c1.5,0,2.9,0.1,4.3,0.4v-6.7c0-0.2,0.1-0.4,0.2-0.5
	c0.1-0.1,0.3-0.2,0.5-0.2h1.9c0.2,0,0.4,0.1,0.5,0.2c0.1,0.1,0.2,0.3,0.2,0.5V41.2z M109.6,39.7V25.4c-0.9-0.2-2.4-0.3-4.3-0.3
	c-1.7,0-2.9,0.5-3.7,1.5s-1.1,2.5-1.1,4.5v2.6c0,2.1,0.4,3.6,1.1,4.6s1.9,1.5,3.7,1.5C106.5,39.9,108,39.8,109.6,39.7z"/>
<path fill="#2CBDEE" d="M133.2,32.8c0,0.5-0.2,0.8-0.7,0.8h-12.2v0.5c0,2.1,0.4,3.6,1.2,4.5c0.8,0.9,2.1,1.4,3.8,1.4
	c2.6,0,4.7-0.1,6.5-0.4h0.2c0.4,0,0.6,0.2,0.6,0.5v1.2c0,0.5-0.2,0.7-0.7,0.8c-2.1,0.4-4.3,0.6-6.5,0.6c-1.1,0-2.1-0.1-3.1-0.4
	c-0.9-0.3-1.8-0.7-2.6-1.4c-0.8-0.6-1.4-1.5-1.9-2.7c-0.5-1.2-0.7-2.5-0.7-4.2v-3.2c0-2.6,0.7-4.7,2.1-6.2c1.4-1.5,3.4-2.2,6-2.2
	c2.6,0,4.6,0.7,6,2.2c1.4,1.5,2.1,3.6,2.1,6.2V32.8z M130,31.1v-0.3c0-2-0.4-3.4-1.2-4.3c-0.8-0.9-2-1.3-3.6-1.3
	c-3.3,0-4.9,1.9-4.9,5.6v0.3H130z"/>
<path fill="#2CBDEE" d="M153,33.9c0,2.9-0.7,5-2,6.5c-1.3,1.5-3.3,2.3-5.9,2.3c-1.4,0-2.8-0.1-4.3-0.4v6.5c0,0.2-0.1,0.4-0.2,0.5
	s-0.3,0.2-0.5,0.2h-1.9c-0.2,0-0.4-0.1-0.5-0.2c-0.1-0.1-0.2-0.3-0.2-0.5V24.1c0-0.2,0-0.4,0.1-0.5c0.1-0.1,0.3-0.2,0.6-0.3
	c2.3-0.6,4.5-0.8,6.7-0.8c2.6,0,4.6,0.8,6,2.4c1.3,1.6,2,3.7,2,6.5V33.9z M149.8,33.9v-2.6c0-2-0.4-3.6-1.1-4.6
	c-0.7-1.1-1.9-1.6-3.7-1.6c-1.5,0-2.9,0.1-4.3,0.4v14.2c1.3,0.2,2.8,0.4,4.3,0.4c1.7,0,2.9-0.5,3.6-1.5
	C149.5,37.4,149.8,35.9,149.8,33.9z"/>
<path fill="#2CBDEE" d="M166.3,24.5c0,0.4-0.3,0.6-0.8,0.6c-1.7,0-3.3,0.5-5,1.5v15.1c0,0.2-0.1,0.4-0.2,0.5
	c-0.1,0.1-0.3,0.2-0.5,0.2H158c-0.2,0-0.4-0.1-0.5-0.2c-0.1-0.1-0.2-0.3-0.2-0.5V23.4c0-0.2,0.1-0.4,0.2-0.5
	c0.1-0.1,0.3-0.2,0.5-0.2h1.7c0.2,0,0.4,0.1,0.5,0.2c0.1,0.1,0.2,0.3,0.2,0.5v0.8c1.7-1.1,3.4-1.7,5.1-1.7c0.5,0,0.8,0.2,0.8,0.6
	V24.5z"/>
<path fill="#2CBDEE" d="M184.4,32.8c0,0.5-0.2,0.8-0.7,0.8h-12.2v0.5c0,2.1,0.4,3.6,1.2,4.5c0.8,0.9,2.1,1.4,3.8,1.4
	c2.6,0,4.7-0.1,6.5-0.4h0.2c0.4,0,0.6,0.2,0.6,0.5v1.2c0,0.5-0.2,0.7-0.7,0.8c-2.1,0.4-4.3,0.6-6.5,0.6c-1.1,0-2.1-0.1-3.1-0.4
	c-0.9-0.3-1.8-0.7-2.6-1.4c-0.8-0.6-1.4-1.5-1.9-2.7c-0.5-1.2-0.7-2.5-0.7-4.2v-3.2c0-2.6,0.7-4.7,2.1-6.2c1.4-1.5,3.4-2.2,6-2.2
	c2.6,0,4.6,0.7,6,2.2c1.4,1.5,2.1,3.6,2.1,6.2V32.8z M181.1,31.1v-0.3c0-2-0.4-3.4-1.2-4.3c-0.8-0.9-2-1.3-3.6-1.3
	c-3.3,0-4.9,1.9-4.9,5.6v0.3H181.1z"/>
<path fill="#2CBDEE" d="M201.2,41.5c0,0.4-0.2,0.7-0.7,0.8c-1.5,0.3-3,0.4-4.6,0.4c-2.5,0-4.4-0.8-5.7-2.4c-1.4-1.6-2-3.7-2-6.4
	v-2.8c0-2.7,0.7-4.8,2-6.4c1.4-1.6,3.3-2.4,5.7-2.4c1.6,0,3.1,0.1,4.6,0.4c0.3,0,0.5,0.1,0.6,0.2c0.1,0.1,0.1,0.3,0.1,0.6v1.3
	c0,0.4-0.2,0.5-0.6,0.5h-0.1c-1.5-0.2-3-0.3-4.5-0.3c-3,0-4.6,2-4.6,6v2.8c0,4,1.5,6,4.6,6c1.5,0,3-0.1,4.5-0.3h0.1
	c0.4,0,0.6,0.2,0.6,0.5V41.5z"/>
<path fill="#2CBDEE" d="M219.2,41.7c0,0.2-0.1,0.4-0.2,0.5c-0.1,0.1-0.3,0.2-0.5,0.2h-1.7c-0.2,0-0.4-0.1-0.5-0.2
	c-0.1-0.1-0.2-0.3-0.2-0.5v-0.8c-2,1.2-3.9,1.8-5.6,1.8c-1.8,0-3.2-0.4-4.3-1.3c-1.1-0.9-1.7-2.4-1.7-4.5v-0.4c0-2,0.7-3.5,2-4.4
	c1.3-0.9,3.6-1.4,6.8-1.4h2.7v-1.4c0-1.5-0.3-2.6-0.9-3.2c-0.6-0.6-1.6-0.9-3-0.9c-1.8,0-3.6,0.1-5.6,0.3h-0.2
	c-0.4,0-0.7-0.2-0.7-0.6v-1.3c0-0.4,0.3-0.6,0.8-0.7c1.8-0.3,3.7-0.5,5.7-0.5c4.7,0,7.1,2.3,7.1,6.8V41.7z M216,38.7v-5.8h-2.7
	c-2.2,0-3.6,0.3-4.4,0.8c-0.8,0.5-1.2,1.4-1.2,2.7v0.4c0,1.2,0.3,2.1,0.8,2.6c0.5,0.5,1.4,0.7,2.5,0.7
	C212.5,40.1,214.2,39.6,216,38.7z"/>
<path fill="#2CBDEE" d="M233.9,41.9c0,0.3-0.2,0.5-0.7,0.6c-0.8,0.1-1.6,0.2-2.4,0.2c-1.8,0-3-0.3-3.8-1c-0.8-0.7-1.1-1.9-1.1-3.8
	V25.3l-3.5-0.4c-0.5,0-0.7-0.3-0.7-0.6v-1c0-0.4,0.2-0.6,0.7-0.6h3.5v-3.5c0-0.4,0.2-0.6,0.7-0.7l1.9-0.3h0.1c0.4,0,0.5,0.2,0.5,0.6
	v3.9h3.9c0.2,0,0.4,0.1,0.5,0.2c0.1,0.1,0.2,0.3,0.2,0.5v1.2c0,0.2-0.1,0.4-0.2,0.5c-0.1,0.1-0.3,0.2-0.5,0.2h-3.9v12.5
	c0,1,0.1,1.6,0.4,1.9s0.8,0.4,1.6,0.4h2c0.5,0,0.8,0.2,0.8,0.5V41.9z"/>
<path fill="#2CBDEE" d="M252.8,32.8c0,0.5-0.2,0.8-0.7,0.8h-12.2v0.5c0,2.1,0.4,3.6,1.2,4.5c0.8,0.9,2.1,1.4,3.8,1.4
	c2.6,0,4.7-0.1,6.5-0.4h0.2c0.4,0,0.6,0.2,0.6,0.5v1.2c0,0.5-0.2,0.7-0.7,0.8c-2.1,0.4-4.3,0.6-6.5,0.6c-1.1,0-2.1-0.1-3.1-0.4
	c-0.9-0.3-1.8-0.7-2.6-1.4c-0.8-0.6-1.4-1.5-1.9-2.7c-0.5-1.2-0.7-2.5-0.7-4.2v-3.2c0-2.6,0.7-4.7,2.1-6.2c1.4-1.5,3.4-2.2,6-2.2
	c2.6,0,4.6,0.7,6,2.2c1.4,1.5,2.1,3.6,2.1,6.2V32.8z M249.5,31.1v-0.3c0-2-0.4-3.4-1.2-4.3c-0.8-0.9-2-1.3-3.6-1.3
	c-3.3,0-4.9,1.9-4.9,5.6v0.3H249.5z"/>
<path fill="#2CBDEE" d="M271.9,41.2c0,0.3,0,0.5-0.1,0.6c-0.1,0.1-0.3,0.2-0.6,0.3c-2.1,0.4-4.4,0.6-6.7,0.6c-2.6,0-4.6-0.8-6-2.4
	c-1.3-1.6-2-3.7-2-6.5v-2.6c0-2.9,0.7-5,2-6.5c1.3-1.5,3.3-2.3,5.9-2.3c1.5,0,2.9,0.1,4.3,0.4v-6.7c0-0.2,0.1-0.4,0.2-0.5
	c0.1-0.1,0.3-0.2,0.5-0.2h1.9c0.2,0,0.4,0.1,0.5,0.2c0.1,0.1,0.2,0.3,0.2,0.5V41.2z M268.7,39.7V25.4c-0.9-0.2-2.4-0.3-4.3-0.3
	c-1.7,0-2.9,0.5-3.7,1.5c-0.7,1-1.1,2.5-1.1,4.5v2.6c0,2.1,0.4,3.6,1.1,4.6c0.7,1,1.9,1.5,3.7,1.5C265.6,39.9,267.1,39.8,268.7,39.7
	z"/>
</svg>
