<?xml version="1.0" encoding="utf-8"?>
<!-- Generator: Adobe Illustrator 16.0.0, SVG Export Plug-In . SVG Version: 6.00 Build 0)  -->
<!DOCTYPE svg PUBLIC "-//W3C//DTD SVG 1.1//EN" "http://www.w3.org/Graphics/SVG/1.1/DTD/svg11.dtd">
<svg version="1.1"
	 id="Layer_1" xmlns:rdf="http://www.w3.org/1999/02/22-rdf-syntax-ns#" xmlns:cc="http://creativecommons.org/ns#" xmlns:dc="http://purl.org/dc/elements/1.1/"
	 xmlns="http://www.w3.org/2000/svg" xmlns:xlink="http://www.w3.org/1999/xlink" x="0px" y="0px" width="1126.14px"
	 height="261.445px" viewBox="0 0 1126.14 261.445" enable-background="new 0 0 1126.14 261.445" xml:space="preserve">
<g>
	<path fill="#555555" d="M190.661,119.57c1.166,1.459,2.072,3.156,2.719,5.094c0.646,1.938,0.969,4.031,0.969,6.281
		c0,3.25-0.594,6.219-1.781,8.906c-1.187,2.687-2.865,4.989-5.031,6.905c-2.167,1.917-4.761,3.406-7.781,4.47
		c-3.021,1.063-6.344,1.594-9.969,1.594c-2.625,0-5.084-0.281-7.375-0.844c-2.292-0.563-4.104-1.261-5.438-2.095
		c-0.792,1.167-1.459,2.271-2,3.313c-0.542,1.042-0.813,2.209-0.813,3.5c0,1.584,0.76,2.896,2.281,3.938
		c1.521,1.042,3.531,1.604,6.031,1.688l16.5,0.625c3.125,0.084,6.01,0.479,8.656,1.188s4.916,1.729,6.813,3.063
		c1.896,1.334,3.375,2.979,4.438,4.938s1.594,4.229,1.594,6.813c0,2.791-0.604,5.438-1.813,7.938s-3.073,4.696-5.594,6.594
		c-2.521,1.896-5.719,3.406-9.594,4.531s-8.479,1.688-13.813,1.688c-5.084,0-9.406-0.406-12.969-1.219
		c-3.563-0.813-6.49-1.938-8.781-3.375c-2.292-1.438-3.959-3.146-5-5.125c-1.042-1.979-1.563-4.156-1.563-6.531
		c0-3.042,0.708-5.709,2.125-8c1.416-2.291,3.604-4.5,6.563-6.625c-1.084-0.5-2.021-1.125-2.813-1.875s-1.438-1.572-1.938-2.469
		s-0.875-1.844-1.125-2.844s-0.375-1.979-0.375-2.938c0-2.708,0.635-5.188,1.906-7.438s2.781-4.375,4.531-6.375
		c-0.792-0.958-1.49-1.896-2.094-2.813c-0.604-0.916-1.125-1.906-1.563-2.969c-0.438-1.063-0.771-2.208-1-3.438
		c-0.229-1.229-0.344-2.635-0.344-4.219c0-3.25,0.594-6.219,1.781-8.906c1.187-2.687,2.854-4.988,5-6.905
		c2.146-1.916,4.729-3.406,7.75-4.47c3.021-1.063,6.364-1.594,10.031-1.594c1.541,0,3.021,0.104,4.438,0.313
		c1.416,0.209,2.666,0.479,3.75,0.813h22.75v8.875h-10.059V119.57z M152.911,182.507c0,2.958,1.541,5.114,4.625,6.47
		c3.083,1.354,7.375,2.03,12.875,2.03c3.458,0,6.364-0.313,8.719-0.938c2.354-0.625,4.25-1.448,5.688-2.469
		c1.438-1.021,2.469-2.188,3.094-3.5c0.625-1.313,0.938-2.656,0.938-4.031c0-2.542-1.042-4.417-3.125-5.625
		c-2.084-1.208-5.271-1.916-9.563-2.125l-16.375-0.563c-1.375,0.917-2.511,1.813-3.406,2.688c-0.896,0.875-1.594,1.76-2.094,2.656
		c-0.5,0.896-0.854,1.791-1.063,2.688S152.911,181.59,152.911,182.507z M156.224,131.195c0,2,0.333,3.834,1,5.5
		c0.666,1.667,1.604,3.084,2.813,4.25c1.208,1.167,2.635,2.073,4.281,2.719c1.646,0.646,3.469,0.969,5.469,0.969
		c2.166,0,4.094-0.363,5.781-1.094c1.688-0.729,3.104-1.719,4.25-2.969s2.021-2.688,2.625-4.313s0.906-3.313,0.906-5.063
		c0-2-0.334-3.833-1-5.5c-0.667-1.666-1.604-3.083-2.813-4.25c-1.209-1.166-2.636-2.072-4.281-2.719
		c-1.646-0.646-3.469-0.97-5.469-0.97c-2.167,0-4.094,0.375-5.781,1.125s-3.104,1.74-4.25,2.97c-1.146,1.229-2.021,2.655-2.625,4.28
		C156.525,127.757,156.224,129.445,156.224,131.195z"/>
	<path fill="#555555" d="M237.224,94.07h-18.563v-8.938h29.563v79.25h18.688v9.063h-50.313v-9.063h20.625V94.07L237.224,94.07z"/>
	<path fill="#555555" d="M285.599,104.32V91.757h51.625v12.563h-18v56.438h18v12.688h-51.625v-12.688h18V104.32H285.599z"/>
	<path fill="#555555" d="M407.662,154.757c0,3.625-0.803,6.72-2.406,9.281c-1.604,2.563-3.729,4.646-6.375,6.25
		c-2.646,1.604-5.646,2.771-9,3.5c-3.354,0.729-6.781,1.094-10.281,1.094c-4.667,0-8.875-0.219-12.625-0.655
		c-3.75-0.438-7.292-1.072-10.625-1.906v-13.75c3.916,1.625,7.822,2.803,11.72,3.531c3.896,0.729,7.571,1.094,11.03,1.094
		c4,0,6.989-0.635,8.97-1.906c1.979-1.271,2.969-2.927,2.969-4.969c0-0.958-0.209-1.833-0.625-2.625
		c-0.417-0.791-1.198-1.552-2.344-2.281c-1.146-0.729-2.762-1.479-4.845-2.25c-2.084-0.771-4.813-1.635-8.188-2.594
		c-3.125-0.875-5.865-1.864-8.219-2.969c-2.354-1.104-4.304-2.406-5.845-3.906c-1.542-1.5-2.697-3.239-3.469-5.219
		c-0.771-1.979-1.156-4.303-1.156-6.97c0-2.583,0.583-5.021,1.75-7.313c1.166-2.291,2.906-4.302,5.22-6.031
		c2.313-1.729,5.196-3.094,8.655-4.094c3.458-1,7.5-1.5,12.125-1.5c4,0,7.541,0.209,10.625,0.625
		c3.083,0.417,5.813,0.875,8.188,1.375v12.438c-3.625-1.166-7.031-1.988-10.219-2.469c-3.188-0.479-6.345-0.719-9.47-0.719
		s-5.636,0.563-7.53,1.688c-1.896,1.125-2.845,2.688-2.845,4.688c0,0.959,0.188,1.813,0.563,2.563s1.114,1.479,2.219,2.188
		s2.646,1.448,4.625,2.219c1.979,0.771,4.594,1.615,7.844,2.531c3.666,1.042,6.75,2.156,9.25,3.344
		c2.5,1.188,4.511,2.531,6.031,4.031c1.521,1.5,2.614,3.209,3.281,5.125C407.328,150.112,407.662,152.299,407.662,154.757z"/>
	<path fill="#555555" d="M484.037,131.57c0,6.334-0.781,12.084-2.344,17.25c-1.563,5.167-4,9.573-7.313,13.219
		c-3.313,3.646-7.553,6.459-12.719,8.438c-5.167,1.979-11.354,2.969-18.563,2.969h-20.75V91.757h24.188
		c6.25,0,11.719,0.781,16.406,2.345c4.687,1.563,8.594,3.969,11.719,7.219s5.469,7.375,7.031,12.375
		C483.254,118.695,484.037,124.654,484.037,131.57z M467.537,132.57c0-4.416-0.354-8.354-1.063-11.813
		c-0.709-3.458-1.905-6.385-3.594-8.78c-1.688-2.396-3.948-4.22-6.781-5.47c-2.834-1.25-6.354-1.875-10.563-1.875h-7.813v55.938
		h6.75c7.541,0,13.271-2.25,17.188-6.75S467.537,142.237,467.537,132.57z"/>
	<path fill="#555555" d="M551.349,136.82c0,1.042-0.03,2.396-0.094,4.063c-0.063,1.668-0.156,3.229-0.281,4.688h-41.75
		c0,2.792,0.428,5.25,1.281,7.375c0.854,2.125,2.063,3.906,3.625,5.344c1.563,1.438,3.438,2.531,5.625,3.281
		c2.188,0.75,4.614,1.125,7.281,1.125c3.083,0,6.385-0.239,9.906-0.719c3.521-0.479,7.177-1.26,10.969-2.344v12.125
		c-1.625,0.459-3.396,0.875-5.313,1.25s-3.875,0.707-5.875,1c-2,0.29-4.021,0.51-6.063,0.655c-2.042,0.146-4.021,0.22-5.938,0.22
		c-4.834,0-9.167-0.688-13-2.063c-3.834-1.375-7.084-3.406-9.75-6.094c-2.667-2.688-4.709-6.01-6.125-9.97
		c-1.417-3.957-2.125-8.54-2.125-13.75c0-5.165,0.708-9.863,2.125-14.094c1.416-4.229,3.416-7.854,6-10.875
		c2.583-3.021,5.72-5.354,9.406-7c3.688-1.646,7.802-2.469,12.344-2.469c4.5,0,8.479,0.698,11.938,2.094
		c3.458,1.396,6.354,3.344,8.688,5.844c2.333,2.5,4.104,5.479,5.313,8.938S551.349,132.695,551.349,136.82z M535.849,134.632
		c0.041-2.5-0.271-4.677-0.938-6.53c-0.667-1.854-1.573-3.386-2.719-4.595c-1.146-1.208-2.479-2.104-4-2.688
		c-1.521-0.583-3.156-0.875-4.906-0.875c-3.834,0-6.979,1.281-9.438,3.844c-2.459,2.563-3.917,6.178-4.375,10.844H535.849
		L535.849,134.632z"/>
	<path fill="#555555" d="M623.537,140.57c0,5.834-0.822,10.875-2.469,15.125s-3.938,7.781-6.875,10.594
		c-2.938,2.813-6.406,4.896-10.406,6.25c-4,1.354-8.354,2.031-13.063,2.031c-1.584,0-3.168-0.104-4.75-0.313
		c-1.584-0.209-3.021-0.479-4.313-0.813v24.813h-15.25v-88.313h13.188l0.375,9.375c1.291-1.625,2.635-3.104,4.031-4.438
		c1.396-1.333,2.906-2.469,4.531-3.405c1.625-0.938,3.375-1.656,5.25-2.156s3.979-0.75,6.313-0.75c3.75,0,7.082,0.75,10,2.25
		c2.916,1.5,5.363,3.636,7.344,6.406c1.979,2.771,3.488,6.125,4.531,10.063C623.015,131.226,623.537,135.654,623.537,140.57z
		 M607.537,141.195c0-3.5-0.25-6.479-0.75-8.938c-0.5-2.458-1.219-4.479-2.156-6.063c-0.938-1.583-2.084-2.739-3.438-3.469
		s-2.906-1.095-4.656-1.095c-2.584,0-5.053,1.042-7.406,3.125c-2.354,2.084-4.844,4.917-7.469,8.5v27.75
		c1.209,0.459,2.697,0.834,4.469,1.125c1.771,0.292,3.572,0.438,5.406,0.438c2.416,0,4.615-0.5,6.594-1.5
		c1.98-1,3.666-2.416,5.064-4.25c1.395-1.833,2.469-4.072,3.219-6.719C607.162,147.455,607.537,144.487,607.537,141.195z"/>
	<path fill="#555555" d="M677.662,134.632c0.084-2.375-0.031-4.396-0.344-6.063c-0.313-1.666-0.813-3.041-1.5-4.125
		c-0.688-1.083-1.531-1.875-2.531-2.375s-2.146-0.75-3.438-0.75c-2.25,0-4.572,0.928-6.969,2.781s-5.031,4.905-7.906,9.155v40.188
		h-15.625v-63.5h13.813l0.563,9.25c1.041-1.625,2.221-3.083,3.531-4.375c1.314-1.291,2.771-2.406,4.375-3.344
		c1.605-0.938,3.385-1.656,5.344-2.156s4.105-0.75,6.439-0.75c3.207,0,6.051,0.553,8.531,1.656c2.479,1.104,4.563,2.739,6.25,4.905
		c1.688,2.167,2.938,4.887,3.75,8.156c0.813,3.271,1.154,7.053,1.029,11.344L677.662,134.632L677.662,134.632z"/>
	<path fill="#555555" d="M762.474,136.82c0,1.042-0.031,2.396-0.094,4.063c-0.063,1.668-0.156,3.229-0.281,4.688h-41.75
		c0,2.792,0.428,5.25,1.281,7.375s2.063,3.906,3.625,5.344c1.563,1.438,3.438,2.531,5.625,3.281s4.613,1.125,7.281,1.125
		c3.082,0,6.385-0.239,9.906-0.719c3.52-0.479,7.176-1.26,10.969-2.344v12.125c-1.625,0.459-3.396,0.875-5.314,1.25
		c-1.916,0.375-3.875,0.707-5.875,1c-2,0.29-4.02,0.51-6.063,0.655c-2.041,0.146-4.021,0.22-5.938,0.22
		c-4.834,0-9.168-0.688-13-2.063c-3.834-1.375-7.084-3.406-9.75-6.094c-2.668-2.688-4.709-6.01-6.125-9.97
		c-1.418-3.957-2.125-8.54-2.125-13.75c0-5.165,0.707-9.863,2.125-14.094c1.416-4.229,3.416-7.854,6-10.875
		c2.582-3.021,5.719-5.354,9.406-7c3.688-1.646,7.801-2.469,12.344-2.469c4.5,0,8.479,0.698,11.938,2.094
		c3.459,1.396,6.354,3.344,8.688,5.844s4.105,5.479,5.314,8.938S762.474,132.695,762.474,136.82z M746.974,134.632
		c0.041-2.5-0.271-4.677-0.938-6.53c-0.668-1.854-1.574-3.386-2.719-4.595c-1.146-1.208-2.48-2.104-4-2.688
		c-1.521-0.583-3.156-0.875-4.906-0.875c-3.834,0-6.98,1.281-9.439,3.844c-2.459,2.563-3.916,6.178-4.375,10.844H746.974
		L746.974,134.632z"/>
	<path fill="#555555" d="M828.912,171.007c-3,1.209-6.104,2.104-9.313,2.688c-3.209,0.583-6.563,0.875-10.063,0.875
		c-5.043,0-9.564-0.688-13.564-2.063s-7.395-3.416-10.188-6.125c-2.791-2.708-4.928-6.063-6.406-10.063s-2.219-8.625-2.219-13.875
		c0-5.083,0.803-9.688,2.406-13.813s3.863-7.646,6.781-10.563c2.916-2.916,6.428-5.166,10.531-6.75
		c4.104-1.583,8.676-2.375,13.719-2.375c4.125,0,7.594,0.219,10.406,0.656c2.813,0.437,5.344,0.989,7.594,1.655v14.813
		c-2.584-1.291-5.387-2.291-8.406-3c-3.021-0.708-5.887-1.063-8.594-1.063c-2.834,0-5.375,0.479-7.625,1.438s-4.146,2.292-5.688,4
		c-1.543,1.709-2.719,3.781-3.531,6.219c-0.813,2.438-1.219,5.115-1.219,8.031c0,3.042,0.438,5.771,1.313,8.188
		s2.113,4.47,3.719,6.156c1.604,1.688,3.531,2.979,5.781,3.875c2.25,0.896,4.75,1.344,7.5,1.344c1.332,0,2.738-0.094,4.219-0.28
		c1.479-0.188,2.959-0.458,4.438-0.813c1.48-0.354,2.939-0.76,4.375-1.219c1.439-0.458,2.781-0.958,4.031-1.5v13.563H828.912z"/>
	<path fill="#555555" d="M887.724,173.445l-0.375-8.313c-1.334,1.417-2.729,2.72-4.188,3.906c-1.459,1.188-3.064,2.219-4.814,3.094
		s-3.654,1.553-5.719,2.031c-2.063,0.479-4.322,0.719-6.781,0.719c-3.25,0-6.104-0.479-8.563-1.438
		c-2.459-0.958-4.521-2.291-6.188-4c-1.668-1.708-2.928-3.771-3.781-6.188c-0.854-2.416-1.281-5.083-1.281-8
		c0-3,0.635-5.771,1.906-8.313c1.271-2.541,3.209-4.729,5.813-6.563c2.605-1.833,5.855-3.271,9.75-4.313
		c3.896-1.041,8.469-1.563,13.719-1.563h8.314v-3.813c0-1.625-0.23-3.094-0.689-4.406s-1.197-2.427-2.219-3.344
		c-1.02-0.916-2.344-1.625-3.969-2.125s-3.625-0.75-6-0.75c-3.75,0-7.447,0.428-11.094,1.281s-7.178,2.053-10.594,3.594v-12.188
		c3.041-1.208,6.553-2.208,10.531-3c3.979-0.791,8.113-1.188,12.406-1.188c4.707,0,8.75,0.448,12.125,1.344
		c3.375,0.896,6.156,2.24,8.344,4.031c2.188,1.792,3.801,4.031,4.844,6.719c1.041,2.688,1.563,5.823,1.563,9.406v43.375h-13.061
		V173.445z M885.537,145.382h-9.313c-2.584,0-4.771,0.25-6.563,0.75c-1.793,0.5-3.25,1.188-4.375,2.063s-1.949,1.886-2.469,3.031
		c-0.521,1.146-0.781,2.364-0.781,3.655c0,2.584,0.832,4.554,2.5,5.906c1.666,1.354,3.938,2.031,6.813,2.031
		c2.125,0,4.332-0.771,6.625-2.313c2.291-1.541,4.813-3.75,7.563-6.625V145.382z"/>
	<path fill="#555555" d="M970.662,172.82c-2.75,0.625-5.521,1.125-8.313,1.5c-2.793,0.375-5.438,0.563-7.938,0.563
		c-4.168,0-7.762-0.438-10.781-1.313c-3.021-0.875-5.521-2.208-7.5-4c-1.979-1.791-3.438-4.072-4.375-6.844
		s-1.406-6.072-1.406-9.906v-31h-17.063v-11.875h17.063v-16.25l15.625-4.063v20.313h24.688v11.875h-24.688v29.875
		c0,3.625,0.832,6.365,2.5,8.219c1.666,1.854,4.457,2.781,8.375,2.781c2.5,0,4.938-0.208,7.313-0.625
		c2.375-0.416,4.541-0.896,6.5-1.438V172.82z"/>
	<path fill="#555555" d="M1043.974,136.82c0,1.042-0.031,2.396-0.094,4.063c-0.063,1.668-0.156,3.229-0.281,4.688h-41.75
		c0,2.792,0.428,5.25,1.281,7.375s2.063,3.906,3.625,5.344c1.563,1.438,3.438,2.531,5.625,3.281s4.613,1.125,7.281,1.125
		c3.082,0,6.385-0.239,9.906-0.719c3.52-0.479,7.176-1.26,10.969-2.344v12.125c-1.625,0.459-3.396,0.875-5.314,1.25
		c-1.916,0.375-3.875,0.707-5.875,1c-2,0.29-4.02,0.51-6.063,0.655c-2.041,0.146-4.021,0.22-5.938,0.22
		c-4.834,0-9.168-0.688-13-2.063c-3.834-1.375-7.084-3.406-9.75-6.094c-2.668-2.688-4.709-6.01-6.125-9.97
		c-1.418-3.957-2.125-8.54-2.125-13.75c0-5.165,0.707-9.863,2.125-14.094c1.416-4.229,3.416-7.854,6-10.875
		c2.582-3.021,5.719-5.354,9.406-7c3.688-1.646,7.801-2.469,12.344-2.469c4.5,0,8.479,0.698,11.938,2.094
		c3.459,1.396,6.354,3.344,8.688,5.844s4.105,5.479,5.314,8.938S1043.974,132.695,1043.974,136.82z M1028.474,134.632
		c0.041-2.5-0.271-4.677-0.938-6.53c-0.668-1.854-1.574-3.386-2.719-4.595c-1.146-1.208-2.48-2.104-4-2.688
		c-1.521-0.583-3.156-0.875-4.906-0.875c-3.834,0-6.98,1.281-9.439,3.844c-2.459,2.563-3.916,6.178-4.375,10.844H1028.474
		L1028.474,134.632z"/>
	<path fill="#555555" d="M1098.974,173.445l-0.375-9.375c-1.334,1.625-2.709,3.104-4.125,4.438c-1.418,1.335-2.938,2.47-4.563,3.406
		c-1.625,0.938-3.365,1.666-5.219,2.188c-1.855,0.521-3.906,0.781-6.156,0.781c-3.75,0-7.084-0.75-10-2.25
		c-2.918-1.5-5.365-3.636-7.344-6.406c-1.98-2.771-3.49-6.135-4.531-10.094c-1.043-3.958-1.564-8.375-1.564-13.25
		c0-5.833,0.822-10.886,2.471-15.156c1.645-4.271,3.926-7.813,6.844-10.625c2.916-2.813,6.375-4.896,10.375-6.25
		c4-1.354,8.354-2.031,13.063-2.031c1.582,0,3.178,0.104,4.781,0.313s3.031,0.479,4.281,0.813V85.132h15.25v88.313H1098.974z
		 M1071.099,142.195c0,3.5,0.238,6.49,0.719,8.969c0.479,2.479,1.188,4.511,2.125,6.094c0.938,1.584,2.094,2.74,3.469,3.47
		c1.375,0.729,2.938,1.094,4.688,1.094c2.584,0,5.041-1.041,7.375-3.125c2.334-2.083,4.814-4.938,7.439-8.563v-27.75
		c-1.209-0.458-2.699-0.833-4.469-1.125c-1.771-0.291-3.555-0.438-5.346-0.438c-2.459,0-4.666,0.5-6.625,1.5
		s-3.635,2.417-5.029,4.25c-1.396,1.834-2.471,4.073-3.221,6.719C1071.474,135.935,1071.099,138.904,1071.099,142.195z"/>
</g>
</svg>
